<svg xmlns="http://www.w3.org/2000/svg" width="32" height="32" viewBox="0 0 32 32">
  <path fill="#c41e3a" d="M15.09 0.24c-1.78 0.34-3.46 1.1-4.85 2.26-0.44 0.37-0.85 1.01-1.34 1.28-0.34 0.19-0.67 0.37-1.01 0.55-0.75 0.41-1.51 0.83-2.26 1.24-0.44 0.24-0.24 1.64-0.8 1.68-0.91 0.07-1.81 0.15-2.71 0.24-0.63 0.07-1.77 0-1.97 0.78-0.2 0.83 0.32 1.9 0.6 2.67 0.11 0.29 0.2 0.79 0.43 1.02 0.62 0.62 1.24 1.24 1.87 1.87 0.25 0.25 0.26 0.31 0.6 0.32 0.25 0 0.49-0.02 0.74-0.03 0.17 0.38 0.4 0.86 0.8 1.06 0.06-0.26 0.12-0.53 0.18-0.79 0.11-0.49 0.38-0.34 0.87-0.38 0.65-0.05 1.29-0.1 1.93-0.19 0.69-0.09 0.98-0.32 1.39 0.37 0.29 0.48 0.57 1.29 0.26 1.82-0.3 0.5-1.44 0.37-1.94 0.4-0.29 0.02-1.1 0.21-1.23-0.08-0.12-0.28-0.25-0.55-0.37-0.83-0.28 0.22-0.38 0.64-0.44 0.96-0.16 0-0.32 0-0.48-0.01-0.08 0-0.51-0.06-0.52 0.01-0.03 0.18-0.07 0.37-0.1 0.55-0.27 1.82 0.5 3.6 2.46 3.86-0.69 2.05-1.22 4.15-1.72 6.26 0.99 0 1.97-0.04 2.95-0.2 0 1.52 0 3.03 0 4.55 2.91-1.02 6.15-2.43 7.98-5.02 0.22 0.81 0.47 1.62 0.78 2.4 0.16 0.38 0.4 1.11 0.86 1.21 1.08 0.22 2.17 0.4 3.25 0.58 2.9 0.47 5.81 0.9 8.72 1.36-0.06-1.03-0.16-2.05-0.35-3.07-0.37-1.35-0.7-2.6-1.07-3.84 1.06 0 2.12 0 3.18 0-1.09-2.77-2.17-5.53-3.26-8.3 0.77 0.05 1.53 0.1 2.3 0.14 0.09-3.93-1.16-8.09-4.12-10.8 0.71-0.46 1.21-1.22 1.59-1.96 0.09-0.18 0.51-0.89 0.32-1-0.83-0.48-1.68-0.91-2.57-1.29C22.74 0.5 18.81-0.47 15.09 0.24z"/>
</svg>
